<?xml version="1.0" encoding="UTF-8" standalone="no"?>
<svg
   xmlns:dc="http://purl.org/dc/elements/1.1/"
   xmlns:cc="http://creativecommons.org/ns#"
   xmlns:rdf="http://www.w3.org/1999/02/22-rdf-syntax-ns#"
   xmlns:svg="http://www.w3.org/2000/svg"
   xmlns="http://www.w3.org/2000/svg"
   xmlns:sodipodi="http://sodipodi.sourceforge.net/DTD/sodipodi-0.dtd"
   xmlns:inkscape="http://www.inkscape.org/namespaces/inkscape"
   version="1.2"
   width="1050"
   height="590"
   id="svg2"
   inkscape:version="0.91 r13725"
   sodipodi:docname="Wikidata-logo-sorted-vertically-with-name.svg">
  <metadata
     id="metadata28">
    <rdf:RDF>
      <cc:Work
         rdf:about="">
        <dc:format>image/svg+xml</dc:format>
        <dc:type
           rdf:resource="http://purl.org/dc/dcmitype/StillImage" />
        <dc:title></dc:title>
      </cc:Work>
    </rdf:RDF>
  </metadata>
  <defs
     id="defs26" />
  <sodipodi:namedview
     pagecolor="#ffffff"
     bordercolor="#666666"
     borderopacity="1"
     objecttolerance="10"
     gridtolerance="10"
     guidetolerance="10"
     inkscape:pageopacity="0"
     inkscape:pageshadow="2"
     inkscape:window-width="1280"
     inkscape:window-height="1024"
     id="namedview24"
     showgrid="false"
     inkscape:zoom="0.56568542"
     inkscape:cx="458.21532"
     inkscape:cy="221.97069"
     inkscape:window-x="1366"
     inkscape:window-y="0"
     inkscape:window-maximized="1"
     inkscape:current-layer="svg2" />
  <path
     d="m 1012.5,505.61945 0,-19.53704 -977.5,0 0,19.53704 977.5,0 z"
     style="fill:#990000"
     id="path4"
     inkscape:connector-curvature="0" />
  <path
     d="m 1012.5,419.87776 0,-36.11111 -977.5,0 0,36.11111 977.5,0 z"
     style="fill:#990000"
     id="path6"
     inkscape:connector-curvature="0" />
  <path
     d="m 35,231.91385 977.5,0 0,-88.61112 -977.5,0 0,88.61112 z"
     style="fill:#990000"
     id="path8"
     inkscape:connector-curvature="0" />
  <path
     d="m 1012.5,572.61111 0,-10.78704 -977.5,0 0,10.78704 977.5,0 z"
     style="fill:#339966"
     id="path10"
     inkscape:connector-curvature="0" />
  <path
     d="m 35,534.2 977.5,0 0,-19.53704 -977.5,0 0,19.53704 z"
     style="fill:#339966"
     id="path12"
     inkscape:connector-curvature="0" />
  <path
     d="m 1012.5,448.45831 0,-19.53703 -977.5,0 0,19.53703 977.5,0 z"
     style="fill:#339966"
     id="path14"
     inkscape:connector-curvature="0" />
  <path
     d="m 1012.5,374.72313 0,-58.61112 -977.5,0 0,58.61112 977.5,0 z"
     style="fill:#006699"
     id="path18"
     inkscape:connector-curvature="0" />
  <path
     d="m 1012.5,477.03889 0,-19.53705 -977.5,0 0,19.53705 977.5,0 z"
     style="fill:#006699"
     id="path20"
     inkscape:connector-curvature="0" />
  <path
     d="m 35,134.25922 977.5,0 0,-112.361114 -977.5,0 0,112.361114 z"
     style="fill:#006699"
     id="path22"
     inkscape:connector-curvature="0" />
  <path
     d="m 1012.5,307.06848 0,-66.11111 -977.5,0 0,66.11111 977.5,0 z"
     style="fill:#339966"
     id="path6-3"
     inkscape:connector-curvature="0" />
  <path
     d="m 1012.5,552.78056 0,-9.53704 -977.5,0 0,9.53704 977.5,0 z"
     style="fill:#990000"
     id="path4-6"
     inkscape:connector-curvature="0" />
  <text
     xml:space="preserve"
     style="font-style:normal;font-weight:normal;font-size:40px;line-height:125%;font-family:sans-serif;letter-spacing:0px;word-spacing:0px;fill:#000000;fill-opacity:1;stroke:none;stroke-width:1px;stroke-linecap:butt;stroke-linejoin:miter;stroke-opacity:1"
     x="523.75977"
     y="288.17633"
     id="text4230"
     sodipodi:linespacing="125%"><tspan
       sodipodi:role="line"
       id="tspan4232"
       x="523.75977"
       y="288.17633"
       style="font-style:normal;font-variant:normal;font-weight:normal;font-stretch:normal;font-family:'Gill Sans MT';-inkscape-font-specification:'Gill Sans MT';text-align:center;text-anchor:middle;fill:#ffffff">WIKIDATA RANK</tspan></text>
</svg>
